<svg width="31" height="31" viewBox="0 0 31 31" fill="none" xmlns="http://www.w3.org/2000/svg">
<path d="M21.7563 0.5H9.18627C3.72627 0.5 0.471268 3.755 0.471268 9.215L0.471268 21.77C0.471268 27.245 3.72627 30.5 9.18627 30.5H21.7413C27.2013 30.5 30.4563 27.245 30.4563 21.785L30.4563 9.215C30.4713 3.755 27.2163 0.5 21.7563 0.5ZM22.6413 12.05L14.1363 20.555C13.9263 20.765 13.6413 20.885 13.3413 20.885C13.0413 20.885 12.7563 20.765 12.5463 20.555L8.30127 16.31C7.86627 15.875 7.86627 15.155 8.30127 14.72C8.73627 14.285 9.45627 14.285 9.89127 14.72L13.3413 18.17L21.0513 10.46C21.4863 10.025 22.2063 10.025 22.6413 10.46C23.0763 10.895 23.0763 11.6 22.6413 12.05Z" fill="#469D3E"/>
</svg>
